<svg xmlns="http://www.w3.org/2000/svg" version="1.1" xmlns:xlink="http://www.w3.org/1999/xlink" xmlns:svgjs="http://svgjs.dev/svgjs" width="1500" height="994" viewBox="0 0 1500 994"><g transform="matrix(1,0,0,1,-1.7050505301061776,-1.6032258064516327)"><svg viewBox="0 0 374 248" data-background-color="#ffffff" preserveAspectRatio="xMidYMid meet" height="994" width="1500" xmlns="http://www.w3.org/2000/svg" xmlns:xlink="http://www.w3.org/1999/xlink"><g id="tight-bounds" transform="matrix(1,0,0,1,0.4251259321731311,0.4000000000000057)"><svg viewBox="0 0 373.14974813565374 247.2" height="247.2" width="373.14974813565374"><g><svg viewBox="0 0 395.52 262.0195899595142" height="247.2" width="373.14974813565374"><g transform="matrix(1,0,0,1,0,161.93861829959516)"><svg viewBox="0 0 395.52 100.08097165991903" height="100.08097165991903" width="395.52"><g id="textblocktransform"><svg viewBox="0 0 395.52 100.08097165991903" height="100.08097165991903" width="395.52" id="textblock"><g><svg viewBox="0 0 395.52 100.08097165991903" height="100.08097165991903" width="395.52"><g transform="matrix(1,0,0,1,0,0)"><svg width="395.52" viewBox="1.55 -37 148.19 37.5" height="100.08097165991903" data-palette-color="#31c48d"><path d="M17.35 0L1.55 0 1.55-1.7 5.75-1.7 5.75-35.3 1.55-35.3 1.55-37 22.6-37 22.6-26.3 21.2-26.3 20.5-31.65Q20.05-35.25 16.35-35.25L16.35-35.25 9.25-35.25 9.25-21.05 16.3-21.05 16.3-27.4 17.8-27.4 17.8-13 16.3-13 16.3-19.35 9.25-19.35 9.25-1.7 17.35-1.7 17.35 0ZM47.5 0L27.6 0 27.6-1.7 35.8-1.7 35.8-35.3 27.6-35.3 27.6-37 47.5-37 47.5-35.3 39.3-35.3 39.3-1.7 47.5-1.7 47.5 0ZM70.7 0.5L69.5 0.5 56.75-29.3 56.75-1.7 60.95-1.7 60.95 0 51.85 0 51.85-1.7 55.05-1.7 55.05-35.3 51.85-35.3 51.85-37 56.95-37 69-8.8 69-35.3 64.8-35.3 64.8-37 73.9-37 73.9-35.3 70.7-35.3 70.7 0.5ZM86.34 0L76.89 0 76.89-1.7 81.09-1.7 81.09-35.3 76.89-35.3 76.89-37 86.34-37Q89.49-37 91.79-35.43 94.09-33.85 95.59-31.2 97.09-28.55 97.84-25.25 98.59-21.95 98.59-18.5L98.59-18.5Q98.59-15.05 97.84-11.75 97.09-8.45 95.59-5.8 94.09-3.15 91.79-1.58 89.49 0 86.34 0L86.34 0ZM86.34-35.4L86.34-35.4 84.59-35.4 84.59-1.6 86.34-1.6Q88.54-1.6 90.37-2.65 92.19-3.7 93.29-5.73 94.39-7.75 94.39-10.65L94.39-10.65 94.39-26.35Q94.39-29.3 93.29-31.3 92.19-33.3 90.37-34.35 88.54-35.4 86.34-35.4ZM122.59 0L101.54 0 101.54-1.7 105.74-1.7 105.74-35.3 101.54-35.3 101.54-37 122.09-37 122.09-26.3 120.69-26.3 119.99-31.65Q119.54-35.25 115.84-35.25L115.84-35.25 109.24-35.25 109.24-21.05 115.69-21.05 115.69-27.4 117.29-27.4 117.29-13 115.69-13 115.69-19.35 109.24-19.35 109.24-1.75 116.34-1.75Q119.99-1.75 120.44-5.4L120.44-5.4 121.19-11.7 122.59-11.7 122.59 0ZM145.44 0.5L145.44 0.5Q143.34 0.5 142.21-0.93 141.09-2.35 141.09-4.65L141.09-4.65 141.09-13.85Q141.09-16.6 140.06-17.68 139.04-18.75 135.99-18.75L135.99-18.75 133.59-18.75 133.59-1.7 137.74-1.7 137.74 0 125.89 0 125.89-1.7 130.09-1.7 130.09-35.3 125.89-35.3 125.89-37 137.39-37Q141.14-37 143.36-35.6 145.59-34.2 146.56-32.1 147.54-30 147.54-27.95L147.54-27.95Q147.54-24.6 145.49-22.45 143.44-20.3 140.04-19.6L140.04-19.6 139.79-19.55 139.79-19.25 140.04-19.2Q142.24-18.75 143.39-17.6 144.54-16.45 144.54-13.85L144.54-13.85 144.54-5.05Q144.54-4.55 144.61-3.78 144.69-3 145.09-2.43 145.49-1.85 146.39-1.85L146.39-1.85Q147.54-1.85 147.89-2.78 148.24-3.7 148.24-4.75L148.24-4.75 148.24-13.4 149.74-13.4 149.74-4.6Q149.74-3.5 149.36-2.3 148.99-1.1 148.06-0.3 147.14 0.5 145.44 0.5ZM133.59-35.4L133.59-20.35 136.54-20.35Q139.89-20.35 141.66-21.63 143.44-22.9 143.44-26.25L143.44-26.25 143.44-29Q143.44-32.35 141.66-33.88 139.89-35.4 136.54-35.4L136.54-35.4 133.59-35.4Z" opacity="1" transform="matrix(1,0,0,1,0,0)" fill="#31c48d" class="wordmark-text-0" data-fill-palette-color="primary" id="text-0"></path></svg></g></svg></g></svg></g></svg></g><g transform="matrix(1,0,0,1,128.60404858299592,0)"><svg viewBox="0 0 138.31190283400812 138.31190283400812" height="138.31190283400812" width="138.31190283400812"><g><svg xmlns="http://www.w3.org/2000/svg" xmlns:xlink="http://www.w3.org/1999/xlink" version="1.1" x="0" y="0" viewBox="5 5 90 90" enable-background="new 0 0 100 100" xml:space="preserve" height="138.31190283400812" width="138.31190283400812" class="icon-icon-0" data-fill-palette-color="accent" id="icon-0"><path d="M84.3 5.7C83.8 5.3 83.2 5 82.5 5H17.5C16.8 5 16.2 5.3 15.7 5.7L5.7 15.7C5.3 16.2 5 16.8 5 17.5V82.5C5 83.2 5.3 83.8 5.7 84.3L15.7 94.3C16.2 94.8 16.8 95 17.5 95H82.5C83.2 95 83.8 94.7 84.3 94.3L94.3 84.3C94.8 83.8 95 83.2 95 82.5V17.5C95 16.8 94.7 16.2 94.3 15.7zM86.3 76.1V23.9L90 21V79zM10 79V21L13.8 23.9V76zM16.3 25.9L21.3 29.8V70.2L16.3 74.1zM70.1 33.3L66.7 29.9 70.6 24.9 75.2 29.5zM35.6 71.3H64.4L68.3 76.3H31.7zM64.5 68.8H35.5L31.2 64.5V35.5L35.5 31.2H64.5L68.8 35.5V64.5zM64.4 28.8H35.6L31.7 23.8H68.3zM70.2 21.3H29.8L25.9 16.3H74.1zM33.3 29.9L29.9 33.3 24.9 29.4 29.5 24.8zM28.8 35.6V64.4L23.8 68.3V31.7zM29.9 66.7L33.3 70.1 29.4 75.1 24.8 70.5zM29.8 78.7H70.2L74.1 83.7H25.9zM66.7 70.1L70.1 66.7 75.1 70.6 70.5 75.2zM71.3 64.4V35.6L76.3 31.7V68.3zM77.1 27.9L72.1 22.9 76.6 17.2 82.9 23.5zM76.1 13.8H23.9L21 10H79zM27.9 22.9L22.9 27.9 16.5 22.9 22.9 16.5zM22.9 72.1L27.9 77.1 22.9 83.5 16.5 77.1zM23.9 86.3H76L79 90H21zM72.1 77.1L77.1 72.1 83.5 77.1 77.1 83.5zM78.7 70.2V29.8L83.7 25.9V74.1zM89.6 18.2L84.8 21.9 78.1 15.2 81.8 10.4zM18.2 10.4L21.3 14.4 14.4 21.3 10.4 18.2zM10.4 81.8L14.4 78.7 21.3 85.6 18.2 89.6zM81.8 89.6L78.7 85.6 85.6 78.7 89.6 81.8z" fill="#096a2e" data-fill-palette-color="accent"></path></svg></g></svg></g><g></g></svg></g><defs></defs></svg><rect width="373.14974813565374" height="247.2" fill="none" stroke="none" visibility="hidden"></rect></g></svg></g></svg>